<?xml version="1.0" encoding="utf-8"?>
<!-- Generator: Adobe Illustrator 25.0.0, SVG Export Plug-In . SVG Version: 6.00 Build 0)  -->
<svg version="1.1" id="Layer_1" xmlns="http://www.w3.org/2000/svg" xmlns:xlink="http://www.w3.org/1999/xlink" x="0px" y="0px"
	 viewBox="0 0 61.1 61.4" style="enable-background:new 0 0 61.1 61.4;" xml:space="preserve">
<style type="text/css">
	.st0{fill:#005792;}
</style>
<g>
	<path class="st0" d="M30.6,14.8c-8.8,0-16,7.1-16,15.8s7.2,15.8,16,15.8s16-7.1,16-15.8S39.4,14.8,30.6,14.8z M30.6,40.6
		c-5.6,0-10.1-4.5-10.1-10s4.6-10,10.1-10c5.6,0,10.1,4.5,10.1,10S36.2,40.6,30.6,40.6z"/>
	<path class="st0" d="M43.5,0H17.6C7.9,0,0,7.9,0,17.6v26.2c0,9.7,7.9,17.6,17.6,17.6h25.9c9.7,0,17.6-7.9,17.6-17.6V17.6
		C61.1,7.9,53.2,0,43.5,0z M55.3,43.8c0,6.5-5.3,11.8-11.8,11.8H17.6c-6.5,0-11.8-5.3-11.8-11.8V17.6c0-6.5,5.3-11.8,11.8-11.8l0,0
		h25.9c6.5,0,11.8,5.3,11.8,11.8V43.8z"/>
	<circle class="st0" cx="46.9" cy="14.1" r="3.8"/>
</g>
</svg>
