<?xml version="1.0" encoding="utf-8"?>
<!-- Generator: Adobe Illustrator 25.0.0, SVG Export Plug-In . SVG Version: 6.00 Build 0)  -->
<svg version="1.1" id="Layer_1" xmlns="http://www.w3.org/2000/svg" xmlns:xlink="http://www.w3.org/1999/xlink" x="0px" y="0px"
	 viewBox="0 0 100.4 100.4" style="enable-background:new 0 0 100.4 100.4;" xml:space="preserve">
<style type="text/css">
	.st0{stroke:#000000;stroke-width:2;stroke-miterlimit:10;}
</style>
<g>
	<path class="st0" d="M69.6,58.9C69.5,58.9,69.5,58.9,69.6,58.9c-0.5,0-1-0.3-1.3-0.7L54,34.2c0-0.1-0.1-0.1-0.1-0.2
		c-1.8-2.9-2.7-6.3-2.7-9.7c0-10.3,8.4-18.7,18.7-18.7c0,0,0,0,0,0c5,0,9.7,2,13.2,5.5c3.5,3.5,5.5,8.2,5.5,13.2l0,0
		c0,3.4-0.9,6.7-2.7,9.6c0,0.1-0.1,0.2-0.1,0.3L70.8,58.2C70.5,58.6,70.1,58.9,69.6,58.9z M56.7,32.9l12.9,21.6L83.1,33
		c0-0.1,0.1-0.2,0.1-0.3c1.6-2.5,2.4-5.4,2.4-8.3c0,0,0,0,0,0c0-4.2-1.6-8.1-4.6-11.1c-3-3-6.9-4.6-11.1-4.6c0,0,0,0,0,0
		c-8.7,0-15.7,7-15.7,15.7c0,3,0.8,5.8,2.4,8.3C56.6,32.7,56.7,32.8,56.7,32.9z"/>
	<path class="st0" d="M69.9,31.4C69.9,31.4,69.9,31.4,69.9,31.4c-2.1,0-4.1-0.8-5.6-2.3c-1.5-1.5-2.3-3.5-2.3-5.6
		c0-2.1,0.8-4.1,2.3-5.6c1.5-1.5,3.5-2.3,5.6-2.3c0,0,0,0,0,0c4.4,0,7.9,3.6,7.9,7.9l0,0c0,2.1-0.8,4.1-2.3,5.6
		C74,30.5,72,31.4,69.9,31.4z M69.9,18.5c-1.3,0-2.5,0.5-3.5,1.4c-0.9,0.9-1.4,2.2-1.4,3.5c0,1.3,0.5,2.6,1.4,3.5
		c0.9,0.9,2.2,1.4,3.5,1.4c0,0,0,0,0,0c1.3,0,2.5-0.5,3.5-1.4c0.9-0.9,1.4-2.2,1.4-3.5C74.8,20.7,72.6,18.5,69.9,18.5
		C69.9,18.5,69.9,18.5,69.9,18.5z M76.3,23.4L76.3,23.4L76.3,23.4z"/>
	<path class="st0" d="M94.4,80.2H4.5c-0.5,0-1-0.3-1.3-0.7c-0.3-0.4-0.3-1-0.1-1.4l16.3-38.2c0.2-0.6,0.8-0.9,1.4-0.9h38.6
		c0.8,0,1.5,0.7,1.5,1.5s-0.7,1.5-1.5,1.5H21.9L6.8,77.2h85.3L77.5,43c-0.3-0.8,0-1.6,0.8-2c0.8-0.3,1.6,0,2,0.8l15.5,36.2
		c0.2,0.5,0.2,1-0.1,1.4C95.4,79.9,94.9,80.2,94.4,80.2z"/>
	<path class="st0" d="M69.7,79.9c-0.8,0-1.4-0.6-1.5-1.3c0-0.1-1-7.5-11.3-9.2c-1-0.2-2.5-0.3-4.3-0.5c-9.8-0.9-18.7-2.2-20.4-6.7
		c-1.1-3,0.5-5.2,1.8-7c1.4-2,1.9-2.8,1.2-4.1c-0.5-0.8-1.9-1.4-3.3-2c-2.8-1.2-6.6-2.9-6.6-7.4c0-0.8,0.7-1.5,1.5-1.5c0,0,0,0,0,0
		c0.8,0,1.5,0.7,1.5,1.5c0,2.4,1.8,3.4,4.8,4.7c1.9,0.8,3.8,1.6,4.7,3.3c1.8,3,0,5.5-1.3,7.4c-1.2,1.7-2,2.8-1.4,4.2
		c1.2,3.2,12.5,4.3,17.9,4.8c1.8,0.2,3.4,0.3,4.5,0.5C70,68.5,71.2,77.8,71.2,78.2c0.1,0.8-0.5,1.6-1.3,1.7
		C69.8,79.9,69.8,79.9,69.7,79.9z"/>
</g>
</svg>
