<?xml version="1.0" encoding="utf-8"?>
<!-- Generator: Adobe Illustrator 25.0.0, SVG Export Plug-In . SVG Version: 6.00 Build 0)  -->
<svg version="1.1" id="Layer_1" xmlns="http://www.w3.org/2000/svg" xmlns:xlink="http://www.w3.org/1999/xlink" x="0px" y="0px"
	 viewBox="0 0 30.7 65.7" style="enable-background:new 0 0 30.7 65.7;" xml:space="preserve">
<style type="text/css">
	.st0{fill:#005792;}
</style>
<path class="st0" d="M10.1,3.4C12.7,1,16.3,0.1,19.7,0c3.6,0,7.3,0,10.9,0c0,3.8,0,7.7,0,11.5c-2.3,0-4.7,0-7,0
	c-1.5-0.1-3,1-3.3,2.5c0,2.6,0,5.1,0,7.7c3.4,0,6.9,0,10.3,0c-0.3,3.7-0.7,7.4-1.3,11.1c-3,0-6.1,0-9.1,0c0,11,0,21.9,0,32.8
	c-4.5,0-9,0-13.6,0c-0.1-11,0-21.9,0-32.9c-2.2,0-4.4,0-6.6,0c0-3.7,0-7.4,0-11c2.2,0,4.4,0,6.6,0c0.1-3.6-0.1-7.2,0.1-10.7
	C6.9,8.2,8,5.3,10.1,3.4z"/>
</svg>
